<?xml version="1.0" standalone="no"?>
<!DOCTYPE svg PUBLIC "-//W3C//DTD SVG 20010904//EN"
 "http://www.w3.org/TR/2001/REC-SVG-20010904/DTD/svg10.dtd">
<svg version="1.0" xmlns="http://www.w3.org/2000/svg"
 width="1043.000000pt" height="1043.000000pt" viewBox="0 0 1043.000000 1043.000000"
 preserveAspectRatio="xMidYMid meet">
<metadata>
Created by potrace 1.11, written by Peter Selinger 2001-2013
</metadata>
<g transform="translate(0.000000,1043.000000) scale(0.100000,-0.100000)"
fill="#000000" stroke="none">
<path d="M8820 9060 c-30 -10 -64 -30 -76 -43 -11 -13 -45 -40 -75 -59 -107
-68 -182 -185 -197 -304 -7 -59 -7 -59 -42 -62 -183 -13 -526 -47 -613 -61
l-107 -17 -23 50 c-81 177 -284 300 -517 313 -150 9 -246 -20 -270 -81 -5 -13
-27 -28 -61 -40 -70 -24 -169 -121 -206 -203 -22 -46 -27 -73 -28 -133 0 -41
4 -93 8 -116 l8 -41 -53 -39 c-29 -21 -84 -57 -123 -80 -98 -57 -356 -217
-505 -313 -69 -44 -199 -128 -290 -185 -91 -58 -176 -113 -190 -123 -14 -10
-70 -47 -125 -82 -55 -35 -170 -110 -255 -166 -85 -56 -227 -149 -315 -206
-167 -107 -330 -223 -377 -267 l-27 -25 -65 61 c-124 116 -276 147 -456 92
-36 -11 -70 -20 -76 -20 -6 0 -24 19 -39 43 -26 38 -128 166 -365 457 -47 58
-96 119 -110 137 -14 17 -72 84 -129 148 l-105 117 18 46 c37 94 47 147 43
217 -7 134 -77 233 -207 293 -135 63 -256 53 -305 -25 -14 -22 -37 -38 -75
-52 -111 -42 -190 -121 -231 -230 -63 -169 -30 -314 93 -409 63 -49 105 -67
171 -77 39 -6 47 -11 42 -24 -4 -9 -89 -263 -190 -566 -189 -566 -245 -748
-245 -797 0 -26 -3 -28 -40 -28 -51 0 -105 -22 -122 -49 -10 -16 -23 -21 -56
-21 -50 0 -149 -31 -209 -66 -138 -80 -233 -239 -233 -389 0 -181 111 -336
299 -416 64 -27 92 -33 178 -37 133 -6 205 9 317 65 199 100 310 271 305 467
l-2 69 69 18 c136 35 498 175 738 286 l119 55 26 -21 c90 -72 174 -101 291
-101 133 0 291 61 395 153 24 20 47 37 52 36 4 0 46 -43 93 -95 251 -280 1772
-1736 2046 -1958 l82 -66 -21 -53 c-30 -74 -29 -211 1 -287 48 -119 134 -201
277 -261 75 -32 87 -34 195 -34 98 0 124 3 175 24 93 37 169 87 219 141 l44
50 59 -61 c58 -62 75 -76 244 -205 128 -98 310 -223 928 -640 117 -79 207
-146 200 -148 -8 -2 -162 -7 -344 -10 -2038 -36 -3057 -63 -3431 -92 l-71 -5
-6 51 c-8 68 -66 185 -118 239 -101 104 -226 154 -385 153 -140 0 -229 -29
-261 -83 -12 -22 -38 -41 -83 -62 -163 -76 -262 -264 -231 -441 13 -76 34
-129 67 -173 13 -17 24 -35 24 -40 0 -4 -43 -44 -96 -88 -268 -224 -491 -420
-497 -438 -3 -9 -23 -6 -75 11 -93 30 -204 42 -295 32 -86 -10 -119 -22 -172
-61 -22 -16 -62 -44 -89 -61 -126 -81 -194 -258 -153 -399 41 -141 210 -282
387 -323 83 -20 227 -20 310 0 134 31 267 131 320 238 67 136 46 278 -62 417
-15 20 -28 39 -28 42 0 3 46 40 102 83 57 43 175 137 262 209 87 71 182 149
211 172 l52 42 53 -20 c147 -56 379 -19 522 82 l29 21 127 -129 c123 -126 173
-171 480 -432 78 -67 142 -124 142 -128 0 -3 -25 -32 -55 -64 -81 -85 -100
-132 -100 -249 0 -88 3 -100 34 -165 42 -84 98 -140 188 -187 100 -53 173 -71
283 -72 272 0 490 153 541 381 14 62 2 138 -36 220 -32 70 -131 173 -203 211
-102 54 -163 67 -313 67 l-135 0 -100 85 c-55 47 -178 153 -273 235 -228 197
-240 206 -353 282 -90 59 -112 83 -89 97 4 3 18 32 30 63 l22 58 837 -4 c460
-2 1276 2 1812 9 536 7 1097 13 1247 14 l272 2 12 -51 c27 -116 116 -221 236
-278 64 -30 74 -32 183 -32 96 0 124 4 172 23 143 58 245 158 298 293 92 239
7 480 -208 586 -75 38 -77 38 -197 38 -119 0 -122 -1 -196 -37 -51 -25 -80
-47 -93 -68 -10 -18 -36 -48 -57 -67 -35 -32 -92 -108 -102 -136 -2 -7 -28 7
-63 34 -59 46 -89 67 -493 341 -789 536 -997 665 -1131 699 l-50 13 8 40 c23
132 -4 240 -93 362 -14 19 -13 27 16 95 50 119 137 315 194 439 29 63 74 165
98 225 57 138 162 386 262 620 42 99 87 207 99 240 13 33 52 125 86 205 34 80
118 285 186 455 69 171 131 324 139 340 15 29 230 564 340 845 29 74 81 218
115 320 35 102 66 188 69 192 4 4 39 12 78 18 91 12 163 39 240 89 69 46 107
90 152 178 87 174 58 365 -79 507 -64 67 -148 116 -230 135 -74 17 -208 13
-270 -9z m283 -254 c66 -38 102 -102 102 -181 -1 -35 -7 -72 -17 -90 -25 -46
-86 -102 -142 -130 -197 -98 -434 100 -347 291 30 66 88 124 125 125 17 1 42
5 56 10 14 4 59 7 101 5 62 -2 85 -8 122 -30z m-1993 -170 c158 -2 217 -19
295 -88 133 -117 106 -273 -60 -350 -43 -20 -66 -23 -160 -23 -130 0 -201 23
-289 92 -124 97 -126 248 -5 358 35 31 42 34 62 24 13 -8 74 -13 157 -13z
m1423 -275 c36 -61 134 -139 212 -168 41 -15 75 -32 75 -36 0 -4 -36 -78 -80
-163 -77 -151 -131 -266 -263 -564 -35 -80 -98 -221 -139 -315 -42 -93 -106
-240 -142 -325 -37 -85 -73 -166 -80 -180 -8 -14 -68 -153 -135 -310 -67 -157
-144 -333 -171 -392 -28 -59 -50 -110 -50 -113 0 -3 -29 -77 -66 -163 -36 -86
-84 -202 -106 -257 -23 -55 -45 -104 -49 -110 -7 -11 -197 -470 -244 -593 -16
-39 -30 -71 -32 -69 -2 2 26 431 62 953 76 1107 90 1319 105 1549 6 94 13 329
15 524 l3 354 60 33 c98 55 178 159 205 264 l14 55 104 2 c106 3 437 27 564
42 117 14 119 14 138 -18z m-5858 -192 c107 -1 165 -49 165 -136 0 -78 -42
-146 -128 -205 -39 -27 -56 -32 -121 -35 -64 -4 -81 -1 -109 17 -44 27 -65 80
-60 150 3 47 12 68 52 128 26 39 58 80 72 91 22 17 27 18 52 5 15 -8 50 -14
77 -15z m4139 -134 c37 -24 104 -57 149 -71 71 -24 99 -28 210 -28 l128 -1 -6
-30 c-3 -16 -15 -93 -25 -170 -11 -77 -26 -185 -34 -240 -20 -133 -31 -261
-61 -685 -35 -499 -152 -2221 -160 -2362 l-7 -118 -86 0 c-69 0 -94 -4 -120
-20 -18 -11 -60 -29 -93 -40 -34 -12 -72 -28 -86 -37 -25 -17 -26 -17 -103 68
-65 71 -244 243 -670 645 -117 111 -610 567 -745 688 -451 408 -678 605 -754
656 l-22 15 37 72 c32 63 38 84 42 156 l4 83 129 69 c71 38 202 115 291 171
90 57 233 146 318 200 85 53 205 129 265 169 61 39 173 111 250 160 221 140
551 357 813 534 90 61 179 118 198 127 19 9 37 20 40 25 10 17 31 9 98 -36z
m-3837 -426 c103 -144 206 -284 218 -294 7 -5 25 -28 41 -50 47 -65 242 -314
312 -398 l65 -78 -63 -63 c-120 -121 -166 -223 -158 -350 l5 -71 -156 -69
c-176 -78 -506 -242 -625 -311 -44 -25 -80 -45 -82 -45 -1 0 -14 20 -28 44
-41 70 -145 158 -223 190 l-68 27 32 67 c17 37 43 96 56 132 47 123 124 335
192 525 37 105 83 229 102 277 18 48 62 171 97 274 l63 186 61 34 c34 19 64
39 67 44 14 23 38 5 92 -71z m1122 -917 c71 -33 91 -124 47 -217 -31 -68 -129
-157 -203 -185 -32 -12 -87 -24 -123 -27 -54 -4 -73 -1 -110 19 -62 32 -83 74
-76 155 8 96 84 223 132 223 13 0 47 9 76 21 100 40 186 43 257 11z m-2111
-742 c16 -12 57 -24 101 -30 85 -12 162 -49 197 -95 31 -41 54 -98 54 -132 0
-84 -110 -212 -215 -253 -83 -31 -201 -32 -270 -1 -172 76 -205 258 -72 398
42 44 158 133 174 133 2 0 16 -9 31 -20z m5038 -1870 c136 -44 194 -177 123
-283 -45 -68 -119 -102 -219 -102 -123 1 -212 57 -247 157 -17 50 -6 97 38
159 57 79 69 85 174 83 50 -1 109 -7 131 -14z m-2475 -1381 c54 -14 124 -71
143 -119 35 -88 15 -162 -69 -246 -44 -45 -76 -67 -119 -83 -83 -31 -160 -37
-227 -18 -185 54 -225 215 -99 398 37 54 37 54 101 61 35 5 87 12 114 16 52 9
95 6 156 -9z m-1363 -1283 c178 -48 262 -195 165 -289 -120 -114 -403 -93
-509 39 -58 73 -68 118 -40 172 28 54 63 77 129 83 112 11 201 9 255 -5z
m2619 -87 c182 6 317 -69 339 -187 8 -41 -17 -111 -54 -147 -113 -114 -358
-121 -492 -15 -53 42 -84 108 -78 165 11 92 111 205 168 188 14 -4 66 -6 117
-4z"/>
</g>
</svg>
